<?xml version="1.0" encoding="utf-8"?>
<!-- Generator: Adobe Illustrator 23.0.1, SVG Export Plug-In . SVG Version: 6.00 Build 0)  -->
<svg version="1.1" id="_x31_" xmlns="http://www.w3.org/2000/svg" xmlns:xlink="http://www.w3.org/1999/xlink" x="0px" y="0px"
	 viewBox="0 0 612 612" style="enable-background:new 0 0 612 612;" xml:space="preserve">
<style type="text/css">
	.st0{fill:none;stroke:#F98506;stroke-width:0.5;stroke-miterlimit:10;}
	.st1{fill:none;stroke:#D8D9DD;stroke-miterlimit:10;stroke-dasharray:8,3;}
	.st2{fill:none;stroke:#F98506;stroke-miterlimit:10;}
	.st3{fill:none;stroke:#F98506;stroke-width:0.75;stroke-miterlimit:10;}
</style>
<g id="XMLID_4_">
	<polyline class="st0" points="31,-0.5 31,7.5 31,15.5 31,23.5 31,31.5 31,39.5 31,47.5 31,55.5 31,63.5 31,71.5 31,79.5 31,87.5 
		31,95.5 31,103.5 31,111.5 31,119.5 31,127.5 31,135.5 31,143.5 31,151.5 31,159.5 31,167.5 31,175.5 31,183.5 31,191.5 31,199.5 
		31,207.5 31,215.5 31,223.5 31,231.5 31,239.5 31,247.5 31,255.5 31,263.5 31,271.5 31,279.5 31,287.5 31,295.5 31,303.5 31,311.5 
		31,319.5 31,327.5 31,335.5 31,343.5 31,351.5 31,359.5 31,367.5 31,375.5 31,383.5 31,391.5 31,399.5 31,407.5 31,415.5 31,423.5 
		31,431.5 31,439.5 31,447.5 31,455.5 31,463.5 31,471.5 31,479.5 31,487.5 31,495.5 31,503.5 31,511.5 31,519.5 31,527.5 31,535.5 
		31,543.5 31,551.5 31,559.5 31,567.5 31,575.5 31,583.5 31,591.5 31,599.5 31,607.5 31,611.5 	"/>
	<path class="st0" d="M31-0.5"/>
	<line class="st0" x1="31" y1="7.5" x2="23" y2="-0.5"/>
	<line class="st0" x1="31" y1="15.5" x2="15" y2="-0.5"/>
	<line class="st0" x1="31" y1="23.5" x2="7" y2="-0.5"/>
	<line class="st0" x1="31" y1="31.5" x2="0" y2="0.5"/>
	<line class="st0" x1="31" y1="39.5" x2="0" y2="8.5"/>
	<line class="st0" x1="31" y1="47.5" x2="0" y2="16.5"/>
	<line class="st0" x1="31" y1="55.5" x2="0" y2="24.5"/>
	<line class="st0" x1="31" y1="63.5" x2="0" y2="32.5"/>
	<line class="st0" x1="31" y1="71.5" x2="0" y2="40.5"/>
	<line class="st0" x1="31" y1="79.5" x2="0" y2="48.5"/>
	<line class="st0" x1="31" y1="87.5" x2="0" y2="56.5"/>
	<line class="st0" x1="31" y1="95.5" x2="0" y2="64.5"/>
	<line class="st0" x1="31" y1="103.5" x2="0" y2="72.5"/>
	<line class="st0" x1="31" y1="111.5" x2="0" y2="80.5"/>
	<line class="st0" x1="31" y1="119.5" x2="0" y2="88.5"/>
	<line class="st0" x1="31" y1="127.5" x2="0" y2="96.5"/>
	<line class="st0" x1="31" y1="135.5" x2="0" y2="104.5"/>
	<line class="st0" x1="31" y1="143.5" x2="0" y2="112.5"/>
	<line class="st0" x1="31" y1="151.5" x2="0" y2="120.5"/>
	<line class="st0" x1="31" y1="159.5" x2="0" y2="128.5"/>
	<line class="st0" x1="31" y1="167.5" x2="0" y2="136.5"/>
	<line class="st0" x1="31" y1="175.5" x2="0" y2="144.5"/>
	<line class="st0" x1="31" y1="183.5" x2="0" y2="152.5"/>
	<line class="st0" x1="31" y1="191.5" x2="0" y2="160.5"/>
	<line class="st0" x1="31" y1="199.5" x2="0" y2="168.5"/>
	<line class="st0" x1="31" y1="207.5" x2="0" y2="176.5"/>
	<line class="st0" x1="31" y1="215.5" x2="0" y2="184.5"/>
	<line class="st0" x1="31" y1="223.5" x2="0" y2="192.5"/>
	<line class="st0" x1="31" y1="231.5" x2="0" y2="200.5"/>
	<line class="st0" x1="31" y1="239.5" x2="0" y2="208.5"/>
	<line class="st0" x1="31" y1="247.5" x2="0" y2="216.5"/>
	<line class="st0" x1="31" y1="255.5" x2="0" y2="224.5"/>
	<line class="st0" x1="31" y1="263.5" x2="0" y2="232.5"/>
	<line class="st0" x1="31" y1="271.5" x2="0" y2="240.5"/>
	<line class="st0" x1="31" y1="279.5" x2="0" y2="248.5"/>
	<line class="st0" x1="31" y1="287.5" x2="0" y2="256.5"/>
	<line class="st0" x1="31" y1="295.5" x2="0" y2="264.5"/>
	<line class="st0" x1="31" y1="303.5" x2="0" y2="272.5"/>
	<line class="st0" x1="31" y1="311.5" x2="0" y2="280.5"/>
	<line class="st0" x1="31" y1="319.5" x2="0" y2="288.5"/>
	<line class="st0" x1="31" y1="327.5" x2="0" y2="296.5"/>
	<line class="st0" x1="31" y1="335.5" x2="0" y2="304.5"/>
	<line class="st0" x1="31" y1="343.5" x2="0" y2="312.5"/>
	<line class="st0" x1="31" y1="351.5" x2="0" y2="320.5"/>
	<line class="st0" x1="31" y1="359.5" x2="0" y2="328.5"/>
	<line class="st0" x1="31" y1="367.5" x2="0" y2="336.5"/>
	<line class="st0" x1="31" y1="375.5" x2="0" y2="344.5"/>
	<line class="st0" x1="31" y1="383.5" x2="0" y2="352.5"/>
	<line class="st0" x1="31" y1="391.5" x2="0" y2="360.5"/>
	<line class="st0" x1="31" y1="399.5" x2="0" y2="368.5"/>
	<line class="st0" x1="31" y1="407.5" x2="0" y2="376.5"/>
	<line class="st0" x1="31" y1="415.5" x2="0" y2="384.5"/>
	<line class="st0" x1="31" y1="423.5" x2="0" y2="392.5"/>
	<line class="st0" x1="31" y1="431.5" x2="0" y2="400.5"/>
	<line class="st0" x1="31" y1="439.5" x2="0" y2="408.5"/>
	<line class="st0" x1="31" y1="447.5" x2="0" y2="416.5"/>
	<line class="st0" x1="31" y1="455.5" x2="0" y2="424.5"/>
	<line class="st0" x1="31" y1="463.5" x2="0" y2="432.5"/>
	<line class="st0" x1="31" y1="471.5" x2="0" y2="440.5"/>
	<line class="st0" x1="31" y1="479.5" x2="0" y2="448.5"/>
	<line class="st0" x1="31" y1="487.5" x2="0" y2="456.5"/>
	<line class="st0" x1="31" y1="495.5" x2="0" y2="464.5"/>
	<line class="st0" x1="31" y1="503.5" x2="0" y2="472.5"/>
	<line class="st0" x1="31" y1="511.5" x2="0" y2="480.5"/>
	<line class="st0" x1="31" y1="519.5" x2="0" y2="488.5"/>
	<line class="st0" x1="31" y1="527.5" x2="0" y2="496.5"/>
	<line class="st0" x1="31" y1="535.5" x2="0" y2="504.5"/>
	<line class="st0" x1="31" y1="543.5" x2="0" y2="512.5"/>
	<line class="st0" x1="31" y1="551.5" x2="0" y2="520.5"/>
	<line class="st0" x1="31" y1="559.5" x2="0" y2="528.5"/>
	<line class="st0" x1="31" y1="567.5" x2="0" y2="536.5"/>
	<line class="st0" x1="31" y1="575.5" x2="0" y2="544.5"/>
	<line class="st0" x1="31" y1="583.5" x2="0" y2="552.5"/>
	<line class="st0" x1="31" y1="591.5" x2="0" y2="560.5"/>
	<line class="st0" x1="31" y1="599.5" x2="0" y2="568.5"/>
	<line class="st0" x1="31" y1="607.5" x2="0" y2="576.5"/>
	<line class="st0" x1="27" y1="611.5" x2="0" y2="584.5"/>
	<line class="st0" x1="19" y1="611.5" x2="0" y2="592.5"/>
	<line class="st0" x1="11" y1="611.5" x2="0" y2="600.5"/>
</g>
<g id="XMLID_1_">
	<path class="st1" d="M422.61,289.45c4.08,4.12,7.93,8.45,11.55,12.97c4.97,6.2,9.51,12.76,13.55,19.64
		c14.32,24.39,22.53,52.8,22.53,83.13c0,14.31-1.83,28.2-5.27,41.44c-3.48,13.41-8.61,26.15-15.16,38
		c-0.87,1.57-1.76,3.12-2.68,4.66c-8.8,14.77-19.86,28.04-32.7,39.34c-28.96,25.52-67,41-108.63,41c-29.57,0-57.31-7.79-81.29-21.45
		c-9.79-5.58-18.95-12.14-27.35-19.55c-2.42-2.13-4.78-4.33-7.07-6.6"/>
	<path class="st1" d="M421.47,288.32c0.15,0.15,0.31,0.3,0.46,0.45"/>
	<path class="st1" d="M189.52,521.47c-6.51-6.51-12.48-13.56-17.82-21.08c-2.56-3.58-4.98-7.29-7.25-11.1
		c-0.12-0.18-0.23-0.37-0.34-0.56c-0.8-1.35-1.58-2.72-2.34-4.1c-6.55-11.85-11.67-24.59-15.15-38
		c-3.45-13.23-5.27-27.12-5.27-41.44c0-7.97,0.57-15.82,1.67-23.5c4.25-29.73,16.45-56.9,34.41-79.27
		c4.34-5.44,9.04-10.58,14.03-15.41c4.93-4.78,10.16-9.25,15.66-13.38c5.47-4.12,11.23-7.9,17.21-11.32
		c2.47-1.41,4.97-2.75,7.51-4.03c3.73-1.89,7.54-3.63,11.44-5.23c7.01-2.88,14.25-5.29,21.69-7.19c11.2-2.87,22.86-4.58,34.84-5.01
		c1.2-0.03,2.4-0.07,3.61-0.09c0.79-0.01,1.59-0.01,2.38-0.01c14.08,0,27.76,1.77,40.82,5.11c7.44,1.9,14.69,4.31,21.69,7.19
		c6.53,2.68,12.86,5.78,18.95,9.26c5.98,3.42,11.73,7.2,17.21,11.32c5.5,4.13,10.73,8.6,15.66,13.38c0.15,0.14,0.29,0.28,0.44,0.43"
		/>
	<path class="st1" d="M276.73,434.27c-0.84-0.84-1.64-1.71-2.39-2.61c-2.21-2.62-4.09-5.52-5.59-8.63
		c-2.6-5.4-4.07-11.45-4.07-17.84c0-7.45,1.99-14.44,5.45-20.46"/>
	<path class="st1" d="M334.86,376.12c6.67,6.66,11.05,15.59,11.89,25.52c0.1,1.18,0.16,2.36,0.16,3.55c0,9.73-3.38,18.67-9.03,25.71
		c-3.55,4.43-8.01,8.1-13.08,10.75c-5.68,2.98-12.14,4.65-19,4.65c-0.33,0-0.66,0-0.99-0.01c-10.62-0.24-20.24-4.52-27.4-11.35"/>
	<path class="st1" d="M270.13,384.72c0.79-1.38,1.66-2.7,2.61-3.96c3.88-5.25,8.97-9.54,14.88-12.45
		c5.47-2.71,11.65-4.23,18.18-4.23c11.28,0,21.5,4.54,28.92,11.9"/>
	<path class="st1" d="M360.14,88.89c4.33,2.13,8.53,4.51,12.56,7.12c0.74,0.48,1.47,0.97,2.2,1.45c7.11,4.83,13.7,10.37,19.65,16.54
		c7.89,8.17,14.66,17.45,20.07,27.55c8.55,15.99,13.68,34.07,14.42,53.28c0.01,0.13,0.01,0.26,0.01,0.38
		c0.05,1.47,0.08,2.95,0.08,4.42c0,16.65-3.3,32.54-9.29,47.03c-3.99,9.67-9.18,18.72-15.37,26.97c-0.54,0.71-1.09,1.43-1.64,2.14
		c-8.12,10.34-17.86,19.35-28.84,26.65c-10.89,7.24-23,12.8-35.96,16.3c-0.47,0.12-0.94,0.25-1.41,0.36
		c-9.85,2.55-20.19,3.89-30.82,3.89c-1.73,0-3.47-0.03-5.18-0.11c-6.75-0.27-13.37-1.1-19.81-2.42c-3.87-0.8-7.69-1.78-11.42-2.93
		c-0.38-0.12-0.78-0.24-1.16-0.37c-10.96-3.49-21.25-8.49-30.63-14.72c-7.07-4.71-13.64-10.12-19.58-16.14
		c-3.91-3.97-7.55-8.19-10.9-12.65c-15.48-20.61-24.66-46.23-24.66-74c0-66.72,52.99-121.07,119.19-123.25
		c0.8-0.04,1.61-0.05,2.42-0.07c0.57-0.01,1.15-0.01,1.73-0.01c10.63,0,20.96,1.35,30.8,3.88c7.26,1.87,14.27,4.38,20.95,7.48
		c0.86,0.4,1.72,0.8,2.57,1.22"/>
	<path class="st1" d="M384.46,175.64c0.14,0.47,0.28,0.94,0.41,1.41c2.06,7.17,3.15,14.75,3.15,22.58c0,9.2-1.52,18.04-4.29,26.29
		c-3.39,10.06-8.68,19.24-15.42,27.13c-8.69,10.16-19.82,18.18-32.48,23.15c-9.3,3.65-19.43,5.66-30.03,5.66
		c-10.65,0-20.82-2.02-30.16-5.71c-12.61-4.97-23.7-12.97-32.36-23.1c-0.88-1.03-1.73-2.08-2.56-3.15
		c-10.75-13.9-17.15-31.33-17.15-50.27c0-28.32,14.32-53.29,36.12-68.08c9.56-6.48,20.54-11.01,32.39-13
		c0.42-0.06,0.82-0.13,1.23-0.19c4.07-0.63,8.24-0.95,12.49-0.95c4.63,0,9.18,0.39,13.6,1.13c7.08,1.17,13.86,3.26,20.2,6.13"/>
	<path class="st1" d="M359.83,137.67c4.9,4.27,9.28,9.11,13.05,14.42c5.04,7.09,8.98,15.01,11.57,23.52"/>
	<path class="st1" d="M339.63,124.68c0.46,0.21,0.91,0.42,1.37,0.63c6.7,3.18,12.91,7.24,18.46,12.05"/>
	<path class="st1" d="M295.52,239.45c-0.46-0.11-0.91-0.24-1.36-0.38c-17.04-5.01-29.48-20.77-29.48-39.44
		c0-4.98,0.89-9.74,2.51-14.15c0.28-0.77,0.58-1.52,0.91-2.27c4.85-11.12,14.48-19.68,26.29-23.08c0.77-0.22,1.55-0.42,2.34-0.6
		c2.92-0.66,5.95-1.01,9.07-1.01c22.7,0,41.11,18.41,41.11,41.11c0,9.29-3.08,17.85-8.27,24.74c-7.5,9.95-19.42,16.38-32.84,16.38
		c-0.76,0-1.51-0.03-2.27-0.06c-2.75-0.15-5.41-0.57-7.99-1.23"/>
	<path class="st1" d="M340.07,296.56c0.21,6.07-0.49,12.28-2.18,18.45c-0.38,1.39-0.8,2.75-1.27,4.07
		c-0.07,0.22-0.14,0.45-0.23,0.66c-0.98,2.71-2.14,5.32-3.46,7.82c-2.98,5.67-6.81,10.73-11.24,15.1c-3.47,3.4-7.31,6.37-11.44,8.85
		c-8.49,5.13-18.2,8.2-28.33,8.77c-3.38,0.2-6.8,0.11-10.23-0.28c-1.29-0.15-2.59-0.33-3.89-0.56c-1.9-0.33-3.8-0.75-5.7-1.27
		c-6.38-1.75-12.25-4.45-17.5-7.89c-1.87-1.22-3.66-2.54-5.37-3.96c-3.44-2.82-6.53-6-9.25-9.46c-3.33-4.22-6.09-8.87-8.21-13.81
		c-0.85-1.96-1.59-3.97-2.23-6.01c-0.3-0.93-0.56-1.89-0.81-2.84c-2.32-8.89-2.68-18.41-0.71-27.92c0.27-1.3,0.58-2.6,0.94-3.9
		c1.71-6.26,4.33-12.01,7.68-17.19c1.58-2.44,3.31-4.74,5.2-6.91c2.68-3.1,5.66-5.9,8.88-8.38c5.57-4.3,11.84-7.63,18.53-9.82
		c10.93-3.58,22.99-4.16,34.91-1.01c0.2,0.05,0.39,0.11,0.58,0.16c0.26,0.07,0.52,0.15,0.78,0.22c0,0,0.01,0,0.02,0.01
		c1.45,0.41,2.87,0.88,4.27,1.39c0.78,0.3,1.56,0.6,2.33,0.92c9,3.74,16.75,9.45,22.85,16.48c4.61,5.33,8.29,11.4,10.84,17.95
		c0.97,2.43,1.77,4.95,2.41,7.51c0.08,0.27,0.15,0.55,0.22,0.84c0.05,0.22,0.1,0.43,0.14,0.65c0.09,0.38,0.18,0.76,0.25,1.14
		C339.54,289.67,339.95,293.09,340.07,296.56z"/>
	<path class="st1" d="M402.62,93.2c28.91,26.31,47.06,64.26,47.06,106.43c0,23.25-5.51,45.21-15.3,64.64
		c-4.05,8.04-8.83,15.64-14.25,22.74l-0.01,0.01c-0.66,0.86-1.32,1.7-2,2.54c-7.57,9.45-16.3,17.92-25.99,25.19
		c-0.45,0.35-0.92,0.7-1.39,1.03c-9.29,6.82-19.43,12.54-30.24,16.98c-3.19,1.32-6.43,2.51-9.72,3.59
		c-9.32,3.07-19.05,5.21-29.09,6.31c-5.22,0.57-10.53,0.87-15.89,0.87c-1.19,0-2.39-0.02-3.58-0.05c-1.25-0.03-2.51-0.07-3.76-0.14
		c-8.95-0.44-17.69-1.71-26.14-3.74c-0.06-0.02-0.13-0.03-0.19-0.05c-3.84-0.91-7.61-1.97-11.32-3.2c-1.2-0.4-2.39-0.8-3.58-1.23
		c-2.07-0.73-4.11-1.53-6.14-2.36c-2.26-0.93-4.5-1.92-6.72-2.97c-6.38-3.01-12.5-6.48-18.33-10.38c-1.76-1.17-3.49-2.38-5.19-3.63
		c-0.47-0.33-0.94-0.68-1.4-1.03c-0.24-0.18-0.47-0.37-0.72-0.55c-9.4-7.14-17.89-15.42-25.26-24.64c-0.68-0.84-1.35-1.69-2.01-2.55
		c-18.55-24.23-29.56-54.52-29.56-87.38c0-47.33,22.86-89.32,58.14-115.54"/>
	<path class="st1" d="M220.97,83.4c22.92-16.77,51.01-26.91,81.43-27.61c0.07-0.01,0.14-0.01,0.22-0.01
		c1.05-0.02,2.11-0.03,3.18-0.03c8.59,0,17.01,0.75,25.19,2.2c0.52,0.09,1.04,0.18,1.55,0.28c12.35,2.32,24.15,6.22,35.17,11.49
		c6.07,2.89,11.91,6.21,17.48,9.9c5.95,3.94,11.59,8.32,16.88,13.09"/>
	<path class="st1" d="M396,150.34c0.32,0.59,0.64,1.17,0.94,1.76c3.06,5.85,5.56,12.02,7.46,18.46c2.29,7.76,3.68,15.9,4.06,24.31
		c0.02,0.48,0.05,0.98,0.06,1.46c0.04,1.1,0.05,2.2,0.05,3.3c0,12.05-2.07,23.61-5.88,34.35c-3.51,9.89-8.48,19.08-14.66,27.32
		c-0.26,0.34-0.52,0.68-0.77,1.01c-2.27,2.94-4.68,5.74-7.24,8.41c-5.23,5.47-11.06,10.35-17.4,14.56
		c-3.18,2.12-6.49,4.06-9.91,5.82c-0.03,0.01-0.05,0.03-0.08,0.04c-4.03,2.08-8.23,3.89-12.56,5.42
		c-5.68,2.01-11.58,3.53-17.66,4.52c-4.1,0.67-8.27,1.09-12.51,1.25c-1.37,0.06-2.74,0.09-4.1,0.09c-1.81,0-3.6-0.05-5.38-0.15
		c-10.8-0.55-21.15-2.78-30.82-6.42c-3.68-1.37-7.26-2.97-10.72-4.75c-3.42-1.76-6.73-3.7-9.92-5.82
		c-8.38-5.57-15.91-12.35-22.32-20.09c-0.79-0.94-1.56-1.9-2.31-2.88c-0.26-0.33-0.51-0.67-0.77-1.01
		c-12.9-17.17-20.55-38.53-20.55-61.67c0-51.2,37.45-93.65,86.45-101.48c5.32-0.85,10.77-1.29,16.34-1.29
		c8.5,0,16.76,1.03,24.65,2.98c0.67,0.16,1.34,0.34,2,0.51c5.72,1.53,11.24,3.55,16.53,6h0.01c11.34,5.26,21.56,12.52,30.21,21.35
		c0.36,0.37,0.71,0.73,1.07,1.11C386.41,135.25,391.69,142.48,396,150.34"/>
	<path class="st1" d="M356.29,164.24c7.04,10.02,11.17,22.23,11.17,35.39c0,8.03-1.54,15.71-4.32,22.74
		c-2.53,6.36-6.08,12.21-10.46,17.33c-1.88,2.19-3.9,4.25-6.06,6.16c-6.23,5.5-13.57,9.75-21.63,12.39
		c-6.04,1.98-12.5,3.06-19.19,3.06c-6.85,0-13.44-1.12-19.6-3.18c-7.92-2.65-15.11-6.86-21.23-12.27c-2.02-1.8-3.94-3.72-5.72-5.78
		c-0.11-0.12-0.23-0.25-0.34-0.38c-9.21-10.77-14.79-24.77-14.79-40.07c0-8.12,1.58-15.88,4.44-22.98
		c4.55-11.33,12.38-21,22.3-27.84"/>
	<path class="st1" d="M346.31,153.15c3.61,3.15,6.86,6.72,9.66,10.64"/>
	<path class="st1" d="M271.53,148.36c5.7-3.82,12.08-6.72,18.93-8.47c4.9-1.25,10.04-1.92,15.34-1.92c3.32,0,6.58,0.26,9.76,0.77
		c0.31,0.04,0.61,0.1,0.91,0.15c11.29,1.97,21.53,7.01,29.81,14.23"/>
	<path class="st1" d="M248.64,176.68c2.13-5.27,8.12-7.82,13.38-5.7c4.89,1.97,7.44,7.26,6.08,12.23c-0.1,0.39-0.23,0.76-0.39,1.15
		c-0.15,0.38-0.33,0.76-0.52,1.12c-2.47,4.49-7.97,6.53-12.84,4.57C249.08,187.93,246.53,181.95,248.64,176.68z"/>
	<path class="st1" d="M259.7,131.56c4.7-3.17,11.09-1.93,14.27,2.78c3.09,4.58,1.99,10.78-2.44,14.02
		c-0.05,0.05-0.11,0.09-0.17,0.12c-0.05,0.04-0.11,0.08-0.17,0.12c-0.09,0.06-0.18,0.12-0.27,0.18c-0.02,0.01-0.04,0.02-0.06,0.03
		c-4.67,2.9-10.84,1.61-13.94-2.98C253.75,141.12,254.99,134.73,259.7,131.56z"/>
	<path class="st1" d="M289.46,98.18c5.61-0.89,10.87,2.93,11.75,8.54c0.87,5.39-2.65,10.46-7.9,11.64
		c-0.21,0.04-0.42,0.09-0.63,0.12c-0.2,0.03-0.41,0.06-0.6,0.07c-5.38,0.54-10.31-3.21-11.16-8.61
		C280.03,104.33,283.86,99.06,289.46,98.18z"/>
	<path class="st1" d="M336.58,80.25c5.5,1.43,8.8,7.04,7.36,12.53c-1.34,5.14-6.35,8.36-11.49,7.57c-0.35-0.05-0.7-0.13-1.04-0.22
		c-0.34-0.08-0.65-0.18-0.96-0.29c-4.91-1.8-7.75-7.08-6.4-12.24C325.48,82.11,331.09,78.82,336.58,80.25z"/>
	<path class="st1" d="M276.73,434.27c3.79,3.79,6.98,7.95,9.57,12.36c3.28,5.56,5.6,11.53,6.98,17.67
		c1.5,6.68,1.88,13.56,1.12,20.33c-0.06,0.66-0.15,1.31-0.24,1.97c-0.08,0.55-0.16,1.09-0.25,1.63c-0.06,0.35-0.12,0.71-0.19,1.06
		c-0.86,4.59-2.25,9.1-4.15,13.43c-2.03,4.61-4.66,9.03-7.87,13.14c-1.53,1.94-3.19,3.82-4.97,5.61c-0.99,0.98-2,1.93-3.04,2.84
		c-1.01,0.89-2.04,1.73-3.1,2.54c-0.8,0.62-1.62,1.21-2.45,1.78c-21.01,14.54-49.03,14.53-70.03,0c-2.81-1.94-5.5-4.14-8.02-6.6
		c-0.2-0.18-0.39-0.37-0.57-0.56l29.06-29.07c-12.73,12.74-31.6,15.37-46.88,7.99c-4.07-1.95-7.88-4.62-11.25-7.99l3.1-3.11
		l0.56-0.56l4.1-4.1l21.12-21.11l0.19-0.19c1.74-1.74,3.31-3.61,4.67-5.58c2.43-3.46,4.25-7.21,5.48-11.12
		c0.55-1.72,0.98-3.48,1.29-5.25c2.24-12.72-1.56-26.3-11.44-36.19l-6.87-6.86l-2.9-2.9c1.08-1.08,2.21-2.09,3.37-3.03
		c12.24-9.84,28.7-11.63,42.48-5.45c4.45,1.99,8.63,4.81,12.29,8.48l27.33,27.33l1.86,1.86l1.94,1.93"/>
	<path class="st1" d="M424.85,372.86c2.78,10.3,4.28,21.14,4.28,32.33c0,14.54-2.52,28.49-7.14,41.44c-5,14.01-12.45,26.85-21.84,38
		c-1.34,1.59-2.72,3.14-4.14,4.66c-22.51,24.13-54.6,39.23-90.21,39.23c-11.11,0-21.87-1.46-32.11-4.21
		c-0.04-0.02-0.1-0.03-0.15-0.04c-21.09-5.7-39.95-16.86-54.96-31.87c-1.01-1.02-2.01-2.05-2.99-3.11
		c-1.14-1.21-2.26-2.46-3.34-3.73c-0.26-0.31-0.53-0.62-0.79-0.93c-6.86-8.12-12.69-17.14-17.27-26.88c-0.94-1.99-1.82-4-2.65-6.05
		c-0.68-1.67-1.33-3.36-1.93-5.07c-4.63-12.95-7.15-26.9-7.15-41.44c0-2.3,0.06-4.59,0.19-6.86c0.1-1.99,0.27-3.96,0.47-5.93
		c1.26-12.2,4.29-23.89,8.85-34.77c3.96-9.46,9.07-18.34,15.15-26.43c0.78-1.04,1.58-2.08,2.39-3.09
		c3.12-3.89,6.47-7.59,10.03-11.07c0.44-0.42,0.87-0.84,1.31-1.26c3.46-3.3,7.11-6.38,10.94-9.25c1.89-1.44,3.84-2.8,5.81-4.11
		c6.66-4.44,13.78-8.24,21.28-11.32c0-0.01,0.02-0.01,0.03-0.01c4.19-1.73,8.5-3.23,12.91-4.49c10.79-3.09,22.19-4.74,33.98-4.74
		c10.04,0,19.79,1.2,29.13,3.47c0.56,0.13,1.1,0.25,1.63,0.4c0.36,0.09,0.73,0.18,1.1,0.29c0.39,0.11,0.8,0.21,1.19,0.32
		c4.69,1.31,9.28,2.87,13.72,4.7c0.04,0.02,0.08,0.04,0.11,0.05c0,0,0.02,0,0.03,0.01c7.5,3.08,14.62,6.88,21.28,11.32
		c1.98,1.31,3.92,2.67,5.8,4.11c3.84,2.87,7.5,5.95,10.95,9.25c4.05,3.85,7.84,7.97,11.33,12.33c0.82,1.01,1.62,2.05,2.4,3.09
		c9.25,12.3,16.24,26.38,20.38,41.65"/>
	<path class="st1" d="M368.31,351.78c0.57,0.67,1.12,1.34,1.67,2.02c8.96,11.18,15.07,24.75,17.19,39.6
		c0.2,1.34,0.35,2.68,0.48,4.03c0.24,2.55,0.37,5.14,0.37,7.76c0,15.11-4.08,29.27-11.19,41.44c-8.42,14.4-21.08,26-36.27,33.1
		c-0.56,0.26-1.12,0.51-1.68,0.76c-3.78,1.67-7.72,3.05-11.77,4.14c-6.8,1.82-13.95,2.78-21.31,2.78c-2.37,0-4.71-0.1-7.01-0.29
		c-1.14-0.09-2.28-0.21-3.41-0.36c-0.41-0.05-0.81-0.11-1.22-0.16c-1.55-0.22-3.09-0.49-4.61-0.79c-1.7-0.34-3.39-0.73-5.05-1.18
		c-6.5-1.73-12.69-4.25-18.45-7.44c-3.83-2.12-7.47-4.54-10.9-7.22c-8.18-6.41-15.12-14.32-20.38-23.34
		c-0.62-1.06-1.22-2.13-1.79-3.22c-6.01-11.41-9.41-24.42-9.41-38.22c0-6.27,0.7-12.37,2.03-18.24c1.29-5.66,3.15-11.1,5.53-16.24
		c0.01-0.01,0.01-0.03,0.02-0.04c1.63-3.55,3.53-6.95,5.64-10.19c1.49-2.31,3.11-4.54,4.82-6.68c0.55-0.68,1.11-1.35,1.67-2.02
		c0.44-0.5,0.88-1,1.32-1.5c3.59-3.99,7.56-7.64,11.86-10.87c1.42-1.06,2.86-2.08,4.35-3.06c2.85-1.87,5.83-3.56,8.91-5.06
		c0.11-0.07,0.23-0.12,0.35-0.18c1.47-0.7,2.95-1.37,4.47-1.99c8.04-3.31,16.72-5.38,25.79-5.96c1.81-0.13,3.63-0.19,5.47-0.19
		c7.26,0,14.31,0.95,21.03,2.72c2.06,0.54,4.1,1.16,6.1,1.87c1.39,0.48,2.77,1.01,4.12,1.56c4.83,1.98,9.42,4.4,13.73,7.23
		c1.48,0.98,2.93,2,4.35,3.06C359.96,343.04,364.38,347.19,368.31,351.78z"/>
	<path class="st1" d="M302.4,55.87c0.07,0,0.14,0,0.22,0c5.57,0,10.16,4.46,10.27,10.05c0.11,5.26-3.75,9.68-8.82,10.39
		c-0.41,0.07-0.82,0.1-1.24,0.11c-0.4,0-0.79-0.01-1.18-0.04c-5.13-0.48-9.2-4.74-9.31-10.02C292.22,60.69,296.72,55.99,302.4,55.87
		z"/>
	<path class="st1" d="M208.3,67.22c4.58-3.36,11.02-2.37,14.37,2.21c3.23,4.4,2.44,10.52-1.7,13.97c-0.02,0.01-0.03,0.02-0.04,0.03
		c-0.16,0.13-0.3,0.24-0.47,0.36c-0.07,0.05-0.14,0.1-0.21,0.15c-0.07,0.05-0.13,0.11-0.21,0.15c-4.54,2.99-10.69,1.93-13.95-2.51
		C202.74,77.01,203.73,70.57,208.3,67.22z"/>
	<polyline class="st1" points="304.6,462.14 312.3,469.84 300.76,481.39 297.51,484.63 295.38,486.76 293.91,488.23 292.85,489.29 
		288.13,494 288.95,489.29 289.55,485.81 289.75,484.63 293.28,464.3 295.27,452.8 304.6,462.13 	"/>
	<path class="st1" d="M270.13,384.72C270.13,384.72,270.13,384.72,270.13,384.72c-0.06,0.06-0.11,0.11-0.17,0.16
		c-0.31,0.28-0.61,0.57-0.91,0.87c-0.7,0.7-1.36,1.44-1.98,2.19c-0.31,0.38-0.6,0.76-0.89,1.15c-7.75,10.56-7.43,25.25,0.99,35.44
		c0.58,0.69,1.19,1.37,1.85,2.02l4.75,4.76l2.96,2.96l0.68,0.67l11.69,11.69l6.17,6.17"/>
	<path class="st1" d="M332.53,490.14c0.28-0.28,0.55-0.56,0.8-0.85c1.36-1.46,2.52-3.02,3.49-4.66c0.81-1.33,1.49-2.72,2.06-4.14
		c4.11-10.39,1.92-22.72-6.48-31.12l0.07-0.06l-2.68-2.68l-4.99-4.98l-14.1-14.11l-14-14l-2.16-2.16l-5.24-5.24l2.36-2.38
		l16.52-16.51l1.61-1.61c-3.68-3.68-8.17-6.14-12.95-7.37c-7.65-1.98-16.03-0.81-22.91,3.57c-0.33,0.21-0.66,0.43-0.99,0.65
		c-0.32,0.23-0.64,0.46-0.96,0.7c-0.29,0.22-0.58,0.45-0.87,0.69"/>
	<path class="st1" d="M424.85,372.85c16.95-19.44,19.67-46.98,8.16-69.02c-2.69-5.14-6.15-10-10.4-14.38
		c-0.17-0.18-0.36-0.36-0.54-0.54c-0.05-0.05-0.09-0.1-0.14-0.14c-0.15-0.16-0.31-0.31-0.46-0.45c-0.15-0.16-0.3-0.3-0.45-0.44
		c-0.15-0.15-0.3-0.29-0.45-0.44c-0.15-0.14-0.3-0.28-0.45-0.42c-5.23-4.82-11.08-8.57-17.29-11.25
		c-7.27-3.15-15.02-4.84-22.81-5.05c-11.94-0.32-23.96,2.8-34.43,9.37c-0.3,0.19-0.59,0.37-0.86,0.56
		c-2.11,1.38-4.17,2.89-6.13,4.55c-0.32,0.27-0.63,0.54-0.94,0.82c-1.01,0.88-1.98,1.79-2.94,2.75l-12.31,12.31l-21.79,21.78
		l-0.29,0.3l-9.22,9.21l9.58,9.58l1.53,1.53l8.03,8.03l11.79,11.78l12.68,12.69c0.05,0.05,0.1,0.09,0.14,0.14
		c14.28,14.19,33.8,19.95,52.31,17.28c11.49-1.66,22.61-6.55,31.86-14.7"/>
	<path class="st1" d="M419.04,378.69c0.98-0.86,1.95-1.77,2.89-2.71c1.02-1.02,1.98-2.06,2.92-3.12"/>
	<path class="st1" d="M222.14,364.56c2.63,2.66,5.69,4.72,8.99,6.15c1.54,0.66,3.13,1.19,4.76,1.56c0.46,0.13,0.92,0.22,1.39,0.3
		c0.36,0.08,0.73,0.14,1.1,0.19c6.17,0.9,12.67-0.21,18.46-3.53c0.31-0.18,0.62-0.37,0.93-0.55l4.46-2.78l8.82-5.5l0.64-0.4
		l7.37-4.58l19.4-12.08l2.23-1.39l26.14-16.26l9.56-5.95l1.64-1.02l22.91-14.26l-8.31-13.32l-0.06-0.1l-6.85-11l-0.99,0.61
		l-6.27,3.9l-1.9,1.18l-26.66,16.6l-29.09,18.11l-11.42,7.11l-1.24,0.78"/>
	<path class="st1" d="M268.14,328.33l-10.91,6.79l-18,11.2l-3.45,2.15l-13.95,8.69l-3.71,2.31c1,1.6,2.12,3.06,3.35,4.39"/>
	<path class="st1" d="M281.7,515.86c-1.57,1.84-3.23,3.61-4.96,5.36c-1.06,1.04-2.12,2.06-3.2,3.05c-0.97,0.88-1.96,1.74-2.95,2.58
		c-0.72,0.61-1.45,1.2-2.18,1.78c-13.09,10.39-28.23,16.91-43.9,19.55c-26.33,4.43-54.16-2.09-76.13-19.55
		c-2.52-1.99-4.96-4.14-7.32-6.44c-0.34-0.31-0.67-0.64-1-0.97c-9.43-9.43-16.5-20.31-21.22-31.93c-0.62-1.54-1.21-3.09-1.74-4.66
		c-4.26-12.26-5.98-25.2-5.14-38c1.45-22.62,10.81-44.81,28.1-62.09c0.33-0.34,0.67-0.67,1-0.99c0.64-0.63,1.3-1.25,1.96-1.86
		c14.13-13,31.2-21.02,48.95-24.06c8.07-1.39,16.28-1.74,24.43-1.07c1.81,0.15,3.62,0.35,5.43,0.6c5.04,0.71,10.05,1.81,14.96,3.32
		c6.92,2.12,13.66,5.03,20.05,8.75c0.11,0.07,0.23,0.13,0.34,0.2c5.46,3.19,10.68,6.96,15.56,11.33c0.38,0.35,0.78,0.7,1.17,1.06
		c0.01,0.01,0.01,0.01,0.02,0.02c0.94,0.87,1.88,1.77,2.81,2.7c5.89,5.89,10.87,12.36,14.92,19.22c1.45,2.46,2.78,4.96,4,7.51
		c0.36,0.75,0.7,1.51,1.04,2.27c2.81,6.31,4.91,12.85,6.29,19.52c0.92,4.37,1.53,8.79,1.82,13.23c0.01,0.11,0.02,0.23,0.02,0.34
		c0.34,5.16,0.26,10.34-0.23,15.5c0,0.01,0,0.01,0,0.01c-0.63,6.5-1.91,12.95-3.84,19.25c-0.34,1.08-0.69,2.17-1.07,3.24
		c-0.29,0.83-0.59,1.66-0.9,2.49c-0.28,0.73-0.56,1.45-0.85,2.17c-1.92,4.71-4.21,9.31-6.91,13.74
		C288.31,507.49,285.21,511.79,281.7,515.86z"/>
	<path class="st1" d="M340.56,479.73c-0.92,1.68-1.96,3.32-3.11,4.9c-1.16,1.62-2.45,3.17-3.87,4.66c-0.29,0.32-0.6,0.64-0.92,0.96
		c0,0.01-0.01,0.02-0.02,0.03c-11.31,11.31-27,15.56-41.61,12.75c-0.49-0.1-0.97-0.2-1.46-0.31c-8.26-1.86-16.11-6.01-22.53-12.44
		c-0.33-0.33-0.65-0.66-0.96-0.99c-1.41-1.49-2.7-3.04-3.86-4.66c-0.62-0.85-1.21-1.72-1.76-2.61c-2.37-3.79-4.14-7.85-5.31-12.05
		c-2.12-7.62-2.27-15.67-0.42-23.34c0.54-2.3,1.27-4.57,2.18-6.78c2.23-5.42,5.51-10.5,9.88-14.92c0.08-0.09,0.16-0.17,0.25-0.26
		c0-0.02,0.02-0.03,0.04-0.05c0.03-0.03,0.07-0.06,0.09-0.09c0.52-0.52,1.04-1.01,1.58-1.5c7.41-6.7,16.47-10.59,25.79-11.65
		c0.38-0.05,0.74-0.08,1.12-0.11c7.64-0.69,15.42,0.51,22.58,3.61c5.23,2.25,10.13,5.52,14.4,9.79c1.96,1.95,3.71,4.04,5.24,6.23
		c3.39,4.84,5.75,10.19,7.07,15.73C347.6,457.69,346.14,469.54,340.56,479.73z"/>
	<path class="st1" d="M424.85,372.86c-0.97,1.06-1.97,2.1-2.99,3.13c-0.93,0.93-1.86,1.83-2.82,2.7c-0.01,0.01-0.01,0.01-0.01,0.01
		c-9.35,8.57-20.05,14.81-31.38,18.73c-13.17,4.55-27.2,5.97-40.9,4.21c-10.89-1.37-21.58-4.75-31.48-10.11
		c-2.41-1.31-4.78-2.73-7.09-4.28c-3.96-2.65-7.75-5.64-11.34-8.98c-0.15-0.14-0.31-0.29-0.46-0.44c-0.64-0.59-1.28-1.21-1.9-1.84
		c-2.46-2.45-4.74-5.02-6.86-7.68c-1.49-1.87-2.9-3.79-4.21-5.74c-0.51-0.76-1.01-1.52-1.49-2.29c-1.01-1.6-1.97-3.22-2.86-4.86
		c-2.77-5.09-5.02-10.39-6.74-15.82c-0.14-0.43-0.27-0.86-0.39-1.29c-0.5-1.63-0.95-3.27-1.34-4.92c-0.19-0.76-0.36-1.52-0.52-2.28
		c-0.25-1.18-0.48-2.37-0.68-3.56c-0.54-3.15-0.91-6.32-1.11-9.5c-0.02-0.3-0.04-0.61-0.05-0.91c-0.39-7.1,0.07-14.26,1.37-21.29
		c0.58-3.1,1.31-6.2,2.22-9.25c1.06-3.54,2.33-7.03,3.82-10.45c2.76-6.31,6.28-12.36,10.56-18.02c2.5-3.31,5.26-6.5,8.28-9.52
		c2.45-2.45,5.01-4.73,7.66-6.84c0.43-0.34,0.85-0.68,1.28-1.01c0.04-0.03,0.08-0.05,0.11-0.07c10.61-8.13,22.62-13.56,35.11-16.32
		c8.05-1.79,16.29-2.45,24.5-2c6.95,0.39,13.86,1.57,20.59,3.55c6.54,1.93,12.91,4.62,18.96,8.06c6.08,3.46,11.84,7.69,17.15,12.68
		c0.68,0.64,1.36,1.29,2.02,1.95c4.84,4.85,9.02,10.1,12.52,15.66c4.63,7.32,8.1,15.17,10.41,23.29c3.2,11.23,4.17,22.96,2.92,34.5
		c-1.99,18.36-9.61,36.22-22.86,50.79V372.86z"/>
	<path class="st1" d="M177.43,302.42c-22.59-28.16-36.08-63.9-36.08-102.79c0-54.31,26.34-102.48,66.94-132.42
		c27.29-20.13,61.01-32.02,97.51-32.02c10.13,0,20.05,0.92,29.69,2.68c30.67,5.59,58.37,19.69,80.56,39.76
		c33.28,30.09,54.19,73.61,54.19,122c0,32.34-9.33,62.49-25.45,87.93c-3.28,5.15-6.82,10.11-10.63,14.86
		c-0.37,0.47-0.76,0.94-1.15,1.41c-8.37,10.23-17.96,19.42-28.54,27.37c-11.05,8.3-23.19,15.25-36.16,20.58
		c-7.26,2.99-14.76,5.46-22.49,7.4c-7.73,1.93-15.67,3.32-23.78,4.11c-5.35,0.53-10.77,0.79-16.24,0.79
		c-7.6,0-15.07-0.51-22.39-1.51c-4.17-0.57-8.29-1.29-12.36-2.17c-1.13-0.24-2.25-0.5-3.37-0.76c-8.4-1.99-16.56-4.63-24.4-7.86
		c-2.53-1.05-5.03-2.15-7.5-3.31c-4.85-2.27-9.56-4.8-14.14-7.52c-2.48-1.48-4.92-3.03-7.32-4.63c-2.45-1.65-4.85-3.35-7.2-5.12
		C196.06,322.88,186.07,313.21,177.43,302.42z"/>
	<polyline class="st1" points="221.64,340.95 229.98,336.86 244.37,329.79 262.01,321.13 268.28,318.05 269.39,317.51 
		300.42,302.27 334.93,285.33 338.24,283.71 345.59,280.09 345.72,280.04 	"/>
	<path class="st1" d="M290.48,139.98c5.5-1.4,11.1,1.91,12.5,7.41c1.31,5.11-1.44,10.3-6.25,12.14c-0.38,0.15-0.76,0.27-1.15,0.37
		c-0.4,0.1-0.79,0.17-1.19,0.23c-5.09,0.69-10.02-2.53-11.32-7.64C281.67,146.99,284.99,141.39,290.48,139.98z"/>
	<path class="st1" d="M315.56,138.74c-5.37-1.12-8.95-6.31-8.01-11.77c0.94-5.6,6.25-9.36,11.85-8.42c5.02,0.86,8.56,5.2,8.56,10.12
		c0,0.57-0.05,1.15-0.15,1.73c-0.92,5.43-5.94,9.14-11.34,8.49c-0.16-0.02-0.34-0.04-0.51-0.07
		C315.83,138.79,315.69,138.77,315.56,138.74z"/>
	<path class="st1" d="M363.05,147.83c-0.37,1.56-1.12,3.06-2.25,4.34c-1.7,1.94-3.95,3.08-6.31,3.41c-2.85,0.4-5.85-0.39-8.18-2.43
		c-0.01-0.01-0.02-0.01-0.02-0.02c0,0,0,0-0.01-0.01c-4.26-3.74-4.69-10.22-0.95-14.48c3.63-4.16,9.86-4.68,14.13-1.28
		c0.12,0.1,0.25,0.2,0.37,0.31C362.81,140.28,363.92,144.24,363.05,147.83z"/>
	<path class="st1" d="M372.87,152.1c3.28,4.63,2.17,11.04-2.47,14.32c-4.54,3.2-10.78,2.21-14.11-2.18c0-0.01-0.01-0.02-0.02-0.03
		c-0.06-0.08-0.13-0.18-0.19-0.27c-0.04-0.05-0.08-0.1-0.11-0.15c-1.7-2.5-2.15-5.49-1.48-8.21c0.57-2.33,1.94-4.47,4.05-5.96
		c1.39-0.98,2.94-1.57,4.51-1.79C366.74,147.33,370.57,148.84,372.87,152.1z"/>
	<path class="st1" d="M335.49,37.9c5.57,1.03,9.25,6.4,8.23,11.98c-0.99,5.32-5.9,8.91-11.18,8.35c-0.27-0.03-0.54-0.06-0.8-0.12
		c-0.25-0.04-0.5-0.1-0.75-0.16c-5.15-1.35-8.48-6.48-7.49-11.81C324.54,40.56,329.9,36.87,335.49,37.9z"/>
	<path class="st1" d="M373.46,79.9c-0.09,1.23-0.41,2.45-0.98,3.63c-0.77,1.61-1.92,2.93-3.28,3.9c-2.57,1.85-5.93,2.45-9.06,1.46
		c-0.01,0-0.02-0.01-0.02-0.01c-0.46-0.15-0.91-0.32-1.35-0.53c-0.43-0.21-0.83-0.44-1.22-0.69c-4.22-2.79-5.85-8.33-3.6-13.03
		c2.46-5.11,8.59-7.27,13.71-4.82h0.01C371.6,71.72,373.79,75.79,373.46,79.9z"/>
	<path class="st1" d="M385.14,79.7c4.72,3.14,6,9.52,2.86,14.24c-2.9,4.36-8.54,5.8-13.1,3.52c-0.4-0.18-0.77-0.4-1.15-0.65
		c-0.36-0.25-0.72-0.51-1.05-0.8c-2.51-2.18-3.75-5.4-3.5-8.58c0.13-1.67,0.68-3.36,1.68-4.87c0.72-1.07,1.59-1.96,2.58-2.66
		C376.83,77.49,381.48,77.27,385.14,79.7z"/>
	<path class="st1" d="M394.53,114.02c3.92,4.09,3.79,10.6-0.3,14.53c-3.91,3.74-9.99,3.81-13.96,0.26
		c-0.19-0.18-0.38-0.36-0.58-0.55c-0.17-0.18-0.34-0.38-0.49-0.56c-3.42-4.11-3.12-10.22,0.8-13.98
		C384.08,109.79,390.58,109.92,394.53,114.02z"/>
	<path class="st1" d="M414.57,141.58c2.66,5.02,0.75,11.23-4.26,13.9c-4.71,2.49-10.48,0.96-13.37-3.38
		c-0.18-0.29-0.37-0.58-0.53-0.88c-0.15-0.29-0.29-0.58-0.41-0.88c-0.53-1.28-0.79-2.61-0.79-3.93c0-3.69,1.99-7.25,5.46-9.09
		C405.7,134.66,411.91,136.57,414.57,141.58z"/>
	<path class="st1" d="M408.46,194.87c0.17-5.36,4.46-9.74,9.9-9.94c5.67-0.2,10.44,4.22,10.64,9.9c0.01,0.13,0.01,0.26,0.01,0.38
		c0,5.51-4.36,10.07-9.9,10.26c-5.42,0.2-10.01-3.84-10.59-9.14c-0.03-0.25-0.05-0.49-0.06-0.75
		C408.45,195.34,408.45,195.1,408.46,194.87z"/>
	<path class="st1" d="M416.05,77.64c4.2,3.82,4.52,10.32,0.71,14.52c-3.7,4.08-9.94,4.51-14.14,1.04c-0.02-0.03-0.05-0.05-0.08-0.07
		c-0.1-0.09-0.2-0.17-0.29-0.26c-0.07-0.06-0.12-0.11-0.18-0.16c-4.04-3.84-4.3-10.21-0.54-14.36
		C405.35,74.15,411.85,73.83,416.05,77.64z"/>
	<path class="st1" d="M348.97,106.38c5.15,2.41,7.37,8.51,4.97,13.66c-2.28,4.91-7.96,7.16-12.94,5.27
		c-0.24-0.09-0.48-0.19-0.72-0.3c-0.22-0.1-0.44-0.21-0.65-0.33c-0.01-0.01-0.02-0.01-0.03-0.01c-4.66-2.62-6.58-8.4-4.29-13.32
		C337.71,106.21,343.83,103.98,348.97,106.38z"/>
	<path class="st1" d="M404.37,170.57c1.59,5.45-1.54,11.16-6.99,12.75c-5.21,1.52-10.65-1.26-12.51-6.27
		c-0.09-0.24-0.17-0.47-0.24-0.71c-0.06-0.24-0.12-0.47-0.17-0.7c-0.01-0.01-0.01-0.02-0.01-0.03c-1.13-5.22,1.96-10.5,7.17-12.03
		C397.07,162,402.78,165.12,404.37,170.57z"/>
	<path class="st1" d="M230.48,445.76c0.26,0.28,0.51,0.57,0.76,0.87c3.44,4.13,5.5,9.42,5.5,15.2c0,6.2-2.37,11.85-6.26,16.08
		c-2.89,3.14-6.62,5.5-10.84,6.72c-2.1,0.62-4.33,0.95-6.63,0.95c-0.26,0-0.52-0.01-0.76-0.02c-2.03-0.06-4.01-0.38-5.88-0.93
		c-9.36-2.71-16.34-11.05-17.04-21.11c-0.04-0.56-0.06-1.12-0.06-1.69c0-3.62,0.81-7.06,2.27-10.13c0.87-1.84,1.96-3.53,3.25-5.07
		c1.73-2.08,3.82-3.86,6.17-5.25c3.53-2.08,7.65-3.28,12.05-3.28C219.92,438.1,226.15,441.05,230.48,445.76z"/>
	<path class="st1" d="M256.91,439.85c3.63,1.48,6.8,3.83,9.28,6.78c3.43,4.12,5.5,9.42,5.5,15.2c0,5.86-2.12,11.22-5.64,15.36
		c-1.59,1.89-3.49,3.52-5.59,4.83c-1.8,1.12-3.76,2-5.83,2.61c-2.12,0.62-4.36,0.95-6.68,0.95c-2.3,0-4.53-0.33-6.63-0.95
		c-4.22-1.22-7.95-3.58-10.84-6.72c-3.89-4.23-6.27-9.88-6.27-16.08c0-5.78,2.07-11.07,5.51-15.2c0.25-0.3,0.5-0.59,0.76-0.87
		c0.77-0.83,1.61-1.62,2.5-2.35c4.08-3.31,9.29-5.31,14.97-5.31C251.12,438.1,254.15,438.72,256.91,439.85z"/>
	<polyline class="st1" points="0,35.19 140.06,35.19 141.06,35.19 288.61,35.19 305.8,35.19 323.39,35.19 470.24,35.19 508,35.19 
		590,35.19 612,35.19 	"/>
	<polyline class="st1" points="141.06,612 141.06,569.63 141.06,528.63 141.06,522.19 141.06,521.22 141.06,489.29 141.06,484.63 
		141.06,446.63 141.06,384.54 141.06,383.55 141.06,199.63 141.06,73.99 141.06,35.19 	"/>
	<polyline class="st1" points="470.24,612 470.24,569.63 470.24,528.63 470.24,489.29 470.24,484.63 470.24,446.63 470.24,405.19 
		470.24,199.63 470.24,73.15 470.24,35.19 	"/>
	<path class="st1" d="M269.05,385.75c0.3-0.3,0.6-0.59,0.91-0.87c0.05-0.05,0.11-0.11,0.17-0.16c0.32-0.29,0.65-0.57,0.98-0.84
		c0.29-0.24,0.58-0.47,0.87-0.69c0.32-0.25,0.64-0.49,0.96-0.7c0.32-0.24,0.64-0.46,0.97-0.67c6.74-4.36,14.88-5.69,22.47-3.99
		c5.27,1.17,10.29,3.82,14.39,7.92c1.77,1.77,3.27,3.72,4.5,5.78c4.23,7.1,5.22,15.6,2.97,23.35c-1.35,4.61-3.84,8.96-7.47,12.59
		c-0.02,0.02-0.05,0.05-0.07,0.07c-2.32,2.3-4.93,4.14-7.71,5.52c-9.07,4.49-19.96,4.02-28.65-1.4c-0.2-0.11-0.38-0.23-0.57-0.35
		c-1.67-1.09-3.25-2.37-4.72-3.84c-0.81-0.81-1.57-1.66-2.26-2.54c-0.56-0.7-1.09-1.43-1.57-2.17c-6.72-10.24-6.4-23.74,0.96-33.67
		c0.28-0.39,0.58-0.77,0.89-1.15C267.68,387.19,268.35,386.45,269.05,385.75z"/>
	<path class="st1" d="M221.77,323.05c0.08-0.1,0.18-0.2,0.28-0.3c1.25-1.25,2.59-2.37,3.99-3.34c10.87-7.6,25.71-7.02,35.97,1.72
		c0.61,0.51,1.19,1.05,1.76,1.62c1.72,1.72,3.18,3.59,4.37,5.58h0.01c0.58,0.96,1.11,1.95,1.57,2.96c0.32,0.69,0.61,1.39,0.87,2.1
		c0.59,1.6,1.04,3.25,1.34,4.92c0.08,0.41,0.14,0.83,0.2,1.24c0.94,6.82-0.5,13.9-4.33,19.89c-0.03,0.07-0.08,0.14-0.12,0.2
		c-1.11,1.71-2.41,3.33-3.91,4.83c-0.5,0.5-1.01,0.98-1.54,1.43c-1.58,1.38-3.27,2.55-5.05,3.53c-5.79,3.21-12.42,4.32-18.8,3.33
		c-0.37-0.05-0.74-0.12-1.1-0.19c-0.47-0.09-0.93-0.19-1.39-0.3c-1.62-0.4-3.2-0.93-4.74-1.6c-3.27-1.42-6.33-3.45-9.01-6.11
		c-0.03-0.03-0.06-0.06-0.09-0.09c-0.2-0.2-0.4-0.4-0.58-0.61c-2.11-2.21-3.79-4.68-5.07-7.3c-3.09-6.32-3.79-13.53-2.08-20.24
		C215.55,331.47,218.03,326.88,221.77,323.05z"/>
	<polyline class="st1" points="0,569.63 140.06,569.63 141.06,569.63 305.8,569.63 470.24,569.63 508,569.63 590,569.63 612,569.63 
			"/>
	<polyline class="st1" points="140.06,365.3 141.06,365.3 146.62,365.3 189.61,365.3 194.79,365.3 199.67,365.3 229.72,365.3 
		231.24,365.3 234.77,365.3 254.73,365.3 266.19,365.3 286.3,365.3 289.1,365.3 304.83,365.3 305.8,365.3 329.79,365.3 
		344.95,365.3 376.83,365.3 421.99,365.3 464.97,365.3 470.24,365.3 508,365.3 590,365.3 612,365.3 	"/>
	<polyline class="st1" points="140.06,441.97 141.06,441.97 146.62,441.97 189.61,441.97 194.79,441.97 199.67,441.97 
		229.72,441.97 231.24,441.97 234.77,441.97 254.73,441.97 266.19,441.97 286.3,441.97 289.1,441.97 304.83,441.97 305.8,441.97 
		329.79,441.97 344.95,441.97 376.83,441.97 421.99,441.97 464.97,441.97 470.24,441.97 508,441.97 590,441.97 612,441.97 	"/>
	<polyline class="st1" points="140.06,451.3 141.06,451.3 146.62,451.3 189.61,451.3 194.79,451.3 199.67,451.3 229.72,451.3 
		231.24,451.3 234.77,451.3 254.73,451.3 266.19,451.3 286.3,451.3 289.1,451.3 304.83,451.3 305.8,451.3 329.79,451.3 
		344.95,451.3 376.83,451.3 421.99,451.3 464.97,451.3 470.24,451.3 508,451.3 590,451.3 612,451.3 	"/>
	<polyline class="st1" points="508,35.49 508,446.63 508,484.63 508,489.29 508,528.63 508,569.63 508,612 	"/>
	<polyline class="st1" points="140.06,528.63 141.06,528.63 148.38,528.63 197.16,528.63 198.11,528.63 268.14,528.63 
		268.41,528.63 305.8,528.63 414.43,528.63 470.24,528.63 508,528.63 590,528.63 612,528.63 	"/>
</g>
<g id="XMLID_11_">
	<line class="st0" x1="385.65" y1="549.08" x2="449.87" y2="484.86"/>
	<line class="st0" x1="366.65" y1="558.08" x2="458.87" y2="465.86"/>
	<line class="st0" x1="351.47" y1="563.26" x2="464.05" y2="450.68"/>
	<line class="st0" x1="338.26" y1="566.47" x2="467.26" y2="437.47"/>
	<line class="st0" x1="326.34" y1="568.39" x2="469.18" y2="425.55"/>
	<line class="st0" x1="315.35" y1="569.38" x2="470.17" y2="414.56"/>
	<line class="st0" x1="305.1" y1="569.63" x2="470.42" y2="404.31"/>
	<line class="st0" x1="295.42" y1="569.31" x2="470.1" y2="394.63"/>
	<line class="st0" x1="286.26" y1="568.47" x2="469.25" y2="385.48"/>
	<line class="st0" x1="277.55" y1="567.18" x2="467.98" y2="376.75"/>
	<line class="st0" x1="269.22" y1="565.51" x2="466.3" y2="368.43"/>
	<polyline class="st0" points="261.26,563.47 333.66,491.07 464.27,360.46 	"/>
	<line class="st0" x1="344.69" y1="470.04" x2="461.91" y2="352.82"/>
	<line class="st0" x1="253.61" y1="561.12" x2="340.8" y2="473.93"/>
	<line class="st0" x1="346.41" y1="458.32" x2="459.24" y2="345.49"/>
	<line class="st0" x1="246.27" y1="558.46" x2="340.52" y2="464.21"/>
	<polyline class="st0" points="345.65,449.08 405.92,388.81 408.42,386.31 456.3,338.43 	"/>
	<polyline class="st0" points="239.22,555.51 260.02,534.71 262.56,532.17 337.95,456.78 	"/>
	<line class="st0" x1="392.23" y1="392.5" x2="453.09" y2="331.64"/>
	<line class="st0" x1="343.48" y1="441.25" x2="387.02" y2="397.71"/>
	<polyline class="st0" points="232.43,552.3 240.67,544.06 246.66,538.07 313.69,471.04 333.92,450.81 	"/>
	<line class="st0" x1="380.73" y1="394" x2="449.63" y2="325.1"/>
	<line class="st0" x1="340.3" y1="434.43" x2="373.66" y2="401.07"/>
	<line class="st0" x1="308.69" y1="466.04" x2="329.04" y2="445.7"/>
	<polyline class="st0" points="225.89,548.84 226.96,547.77 235.23,539.5 289.91,484.82 	"/>
	<line class="st0" x1="371.13" y1="393.6" x2="445.92" y2="318.81"/>
	<polyline class="st0" points="344.08,420.66 344.09,420.64 362.45,402.28 	"/>
	<line class="st0" x1="303.69" y1="461.04" x2="324.04" y2="440.69"/>
	<line class="st0" x1="225.67" y1="539.06" x2="292.01" y2="472.72"/>
	<line class="st0" x1="362.73" y1="392" x2="441.98" y2="312.75"/>
	<line class="st0" x1="347" y1="407.73" x2="352.55" y2="402.18"/>
	<line class="st0" x1="298.69" y1="456.04" x2="319.04" y2="435.69"/>
	<line class="st0" x1="217.3" y1="537.43" x2="294.11" y2="460.62"/>
	<line class="st0" x1="355.24" y1="389.49" x2="437.82" y2="306.91"/>
	<polyline class="st0" points="209.83,534.9 293.69,451.04 314.04,430.69 	"/>
	<line class="st0" x1="348.48" y1="386.25" x2="433.44" y2="301.29"/>
	<line class="st0" x1="203.09" y1="531.64" x2="309.04" y2="425.69"/>
	<line class="st0" x1="342.38" y1="382.35" x2="428.83" y2="295.9"/>
	<line class="st0" x1="197" y1="527.73" x2="304.04" y2="420.69"/>
	<line class="st0" x1="336.88" y1="377.85" x2="424.02" y2="290.71"/>
	<line class="st0" x1="191.52" y1="523.21" x2="299.04" y2="415.69"/>
	<line class="st0" x1="331.83" y1="372.9" x2="418.93" y2="285.8"/>
	<line class="st0" x1="235.87" y1="468.86" x2="294.04" y2="410.69"/>
	<line class="st0" x1="202.22" y1="502.51" x2="228.94" y2="475.79"/>
	<line class="st0" x1="326.83" y1="367.9" x2="413.3" y2="281.43"/>
	<polyline class="st0" points="236.64,458.09 268.69,426.04 268.7,426.03 309.52,385.21 	"/>
	<line class="st0" x1="190.28" y1="504.45" x2="225.57" y2="469.16"/>
	<line class="st0" x1="321.83" y1="362.9" x2="407.04" y2="277.69"/>
	<polyline class="st0" points="234.12,450.61 263.69,421.04 264.45,420.28 303.76,380.97 	"/>
	<line class="st0" x1="181.17" y1="503.56" x2="224.46" y2="460.27"/>
	<line class="st0" x1="316.83" y1="357.9" x2="400.13" y2="274.6"/>
	<polyline class="st0" points="173.57,501.16 229.82,444.91 258.69,416.04 261.62,413.11 296.58,378.15 	"/>
	<line class="st0" x1="311.83" y1="352.9" x2="392.45" y2="272.28"/>
	<polyline class="st0" points="167.07,497.66 253.69,411.04 260.89,403.84 287.29,377.44 	"/>
	<line class="st0" x1="306.83" y1="347.9" x2="383.81" y2="270.92"/>
	<path class="st0" d="M269.11,385.62"/>
	<line class="st0" x1="161.5" y1="493.23" x2="248.69" y2="406.04"/>
	<line class="st0" x1="301.83" y1="342.9" x2="373.85" y2="270.88"/>
	<line class="st0" x1="200.55" y1="444.18" x2="243.69" y2="401.04"/>
	<line class="st0" x1="279.43" y1="355.3" x2="361.7" y2="273.03"/>
	<line class="st0" x1="201.75" y1="432.98" x2="238.69" y2="396.04"/>
	<line class="st0" x1="419.26" y1="205.47" x2="429.19" y2="195.54"/>
	<line class="st0" x1="254" y1="370.73" x2="342.69" y2="282.04"/>
	<line class="st0" x1="200.52" y1="424.21" x2="233.36" y2="391.37"/>
	<line class="st0" x1="411.96" y1="202.77" x2="426.48" y2="188.25"/>
	<polyline class="st0" points="241.69,373.04 316.15,298.58 323.89,290.84 336.71,278.02 	"/>
	<line class="st0" x1="197.89" y1="416.84" x2="227.15" y2="387.58"/>
	<line class="st0" x1="408.69" y1="196.04" x2="419.77" y2="184.96"/>
	<polyline class="st0" points="233.26,371.47 289.66,315.07 304.25,300.48 333.71,271.02 	"/>
	<line class="st0" x1="194.2" y1="410.53" x2="219.9" y2="384.83"/>
	<polyline class="st0" points="226.61,368.12 263.18,331.55 284.6,310.13 330.05,264.68 	"/>
	<line class="st0" x1="189.62" y1="405.11" x2="211.3" y2="383.43"/>
	<polyline class="st0" points="221.28,363.45 236.71,348.02 264.95,319.78 325.77,258.96 	"/>
	<line class="st0" x1="184.62" y1="400.11" x2="200.48" y2="384.25"/>
	<line class="st0" x1="391.51" y1="183.22" x2="404.45" y2="170.28"/>
	<line class="st0" x1="245.31" y1="329.42" x2="320.91" y2="253.82"/>
	<line class="st0" x1="385.92" y1="178.81" x2="400.04" y2="164.69"/>
	<line class="st0" x1="225.66" y1="339.07" x2="315.48" y2="249.25"/>
	<line class="st0" x1="399.86" y1="154.87" x2="414.23" y2="140.5"/>
	<line class="st0" x1="216.87" y1="337.86" x2="309.45" y2="245.28"/>
	<line class="st0" x1="395.55" y1="149.18" x2="410.54" y2="134.19"/>
	<line class="st0" x1="210.9" y1="333.83" x2="302.77" y2="241.96"/>
	<line class="st0" x1="391.74" y1="142.99" x2="406.52" y2="128.21"/>
	<line class="st0" x1="366.63" y1="168.1" x2="374.74" y2="159.99"/>
	<line class="st0" x1="205.17" y1="329.56" x2="295.37" y2="239.36"/>
	<line class="st0" x1="387.58" y1="137.15" x2="402.22" y2="122.51"/>
	<polyline class="st0" points="358.49,166.25 358.49,166.24 372.88,151.85 	"/>
	<line class="st0" x1="199.65" y1="325.08" x2="288.08" y2="236.65"/>
	<line class="st0" x1="383.06" y1="131.67" x2="397.63" y2="117.1"/>
	<line class="st0" x1="353.9" y1="160.83" x2="368.5" y2="146.23"/>
	<line class="st0" x1="194.35" y1="320.38" x2="281.83" y2="232.9"/>
	<line class="st0" x1="409.21" y1="95.52" x2="419.61" y2="85.12"/>
	<line class="st0" x1="378.41" y1="126.32" x2="392.47" y2="112.26"/>
	<line class="st0" x1="349.14" y1="155.59" x2="363.67" y2="141.06"/>
	<line class="st0" x1="189.26" y1="315.47" x2="276.48" y2="228.26"/>
	<line class="st0" x1="402.14" y1="92.59" x2="416.67" y2="78.06"/>
	<line class="st0" x1="344.29" y1="150.44" x2="358.29" y2="136.44"/>
	<line class="st0" x1="184.39" y1="310.34" x2="271.99" y2="222.74"/>
	<line class="st0" x1="399.07" y1="85.66" x2="409.74" y2="74.99"/>
	<line class="st0" x1="179.73" y1="305" x2="268.41" y2="216.32"/>
	<line class="st0" x1="376.64" y1="98.09" x2="389.47" y2="85.26"/>
	<line class="st0" x1="350.42" y1="124.31" x2="353.44" y2="121.3"/>
	<line class="st0" x1="175.29" y1="299.44" x2="265.91" y2="208.82"/>
	<line class="st0" x1="370.32" y1="94.41" x2="385.21" y2="79.52"/>
	<line class="st0" x1="339.98" y1="124.75" x2="353.88" y2="110.85"/>
	<line class="st0" x1="171.06" y1="293.67" x2="264.87" y2="199.86"/>
	<line class="st0" x1="363.96" y1="90.77" x2="379.06" y2="75.67"/>
	<line class="st0" x1="335.26" y1="119.47" x2="348.59" y2="106.14"/>
	<line class="st0" x1="315.96" y1="138.77" x2="327.96" y2="126.77"/>
	<line class="st0" x1="294.61" y1="160.12" x2="303.4" y2="151.33"/>
	<line class="st0" x1="167.07" y1="287.66" x2="266.47" y2="188.26"/>
	<line class="st0" x1="357.35" y1="87.38" x2="372.64" y2="72.09"/>
	<line class="st0" x1="309.75" y1="134.98" x2="324.17" y2="120.56"/>
	<line class="st0" x1="286.78" y1="157.95" x2="301.23" y2="143.5"/>
	<line class="st0" x1="163.3" y1="281.43" x2="267.94" y2="176.79"/>
	<line class="st0" x1="353.38" y1="81.35" x2="365.67" y2="69.06"/>
	<line class="st0" x1="334.26" y1="100.47" x2="344.46" y2="90.27"/>
	<line class="st0" x1="307.72" y1="127.01" x2="316.19" y2="118.54"/>
	<line class="st0" x1="283.09" y1="151.64" x2="294.93" y2="139.8"/>
	<line class="st0" x1="159.77" y1="274.96" x2="263.25" y2="171.48"/>
	<line class="st0" x1="325.94" y1="98.79" x2="341.62" y2="83.11"/>
	<polyline class="st0" points="156.49,268.24 249.24,175.49 249.65,175.08 252.92,171.81 	"/>
	<line class="st0" x1="317.26" y1="97.47" x2="335" y2="79.73"/>
	<line class="st0" x1="153.47" y1="261.26" x2="275.82" y2="138.91"/>
	<line class="st0" x1="307.86" y1="96.87" x2="326.69" y2="78.04"/>
	<polyline class="st0" points="150.74,253.99 272.39,132.34 284.48,120.25 300.63,104.1 	"/>
	<line class="st0" x1="336.94" y1="57.79" x2="343.57" y2="51.16"/>
	<line class="st0" x1="297.52" y1="97.21" x2="317.86" y2="76.87"/>
	<polyline class="st0" points="148.3,246.43 264.9,129.83 268.07,126.66 295.68,99.05 	"/>
	<line class="st0" x1="328.13" y1="56.6" x2="342.37" y2="42.36"/>
	<polyline class="st0" points="146.17,238.56 288.11,96.62 308.4,76.33 	"/>
	<line class="st0" x1="323.92" y1="50.81" x2="336.61" y2="38.12"/>
	<line class="st0" x1="144.4" y1="230.33" x2="312.36" y2="62.37"/>
	<line class="st0" x1="143.01" y1="221.72" x2="307.65" y2="57.08"/>
	<line class="st0" x1="142.05" y1="212.68" x2="298.8" y2="55.93"/>
	<line class="st0" x1="141.58" y1="203.15" x2="287.85" y2="56.88"/>
	<line class="st0" x1="141.67" y1="193.06" x2="275.81" y2="58.92"/>
	<line class="st0" x1="142.45" y1="182.28" x2="262.19" y2="62.54"/>
	<line class="st0" x1="144.09" y1="170.64" x2="245.84" y2="68.89"/>
	<line class="st0" x1="146.9" y1="157.83" x2="221.79" y2="82.94"/>
	<line class="st0" x1="151.45" y1="143.28" x2="223.78" y2="70.95"/>
	<line class="st0" x1="159.09" y1="125.64" x2="218.65" y2="66.08"/>
</g>
<g>
	<g>
		<path class="st2" d="M208.51,67.22c4.58-3.36,11.01-2.37,14.36,2.21c3.23,4.4,2.44,10.53-1.71,13.97
			c22.99-16.8,51.15-26.96,81.66-27.61v0.08c5.57,0,10.15,4.46,10.27,10.06c0.11,5.25-3.74,9.67-8.82,10.39
			c0.58-0.01,1.15-0.01,1.72-0.01c10.64,0,20.96,1.35,30.81,3.88l-0.02,0.06c5.49,1.44,8.79,7.05,7.36,12.54
			c-1.34,5.14-6.35,8.36-11.49,7.57c-8.5-2.28-17.44-3.49-26.66-3.49c-5.56,0-11.02,0.44-16.34,1.29l0,0.03
			c5.61-0.89,10.87,2.94,11.76,8.54c0.86,5.39-2.65,10.46-7.91,11.63c-12.32,1.88-23.74,6.48-33.63,13.19l0.01,0.01
			c4.71-3.17,11.1-1.93,14.27,2.77c3.09,4.59,1.99,10.78-2.44,14.03c-10.25,6.86-18.32,16.7-22.97,28.28l0.09,0.03
			c2.12-5.27,8.11-7.82,13.37-5.7c4.89,1.97,7.43,7.26,6.08,12.23c-2.2,5.03-3.42,10.59-3.42,16.43c0,18.66,12.44,34.43,29.48,39.44
			c0.45,0.13,0.9,0.26,1.35,0.37l0.03,0.01c21.8,6.29,37.52,23.63,42.7,44.24l-116.6,57.25c-5.02-3-9.87-6.25-14.52-9.76
			c-11.07-8.31-21.05-17.99-29.69-28.78c-22.58-28.15-36.08-63.89-36.08-102.78c0-54.32,26.34-102.49,66.95-132.43L208.51,67.22z"/>
		<path class="st2" d="M269.22,426.55c-11.24-11.24-11.2-29.57,0.03-40.81c11.24-11.24,29.69-11.15,40.74-0.11l-20.49,20.49
			l35.52,35.51l7.66,7.66l-0.06,0.06c11.24,11.24,11.36,29.52,0.12,40.76l0.13,0.13c16.15-16.16,17.88-41.27,5.22-59.36
			c5.65-7.04,9.03-15.98,9.03-25.71c0-1.2-0.05-2.38-0.15-3.55c25.48,3.24,52.08-4.41,72.27-22.94
			c-24.17,21.27-61.01,20.42-84.16-2.58c-0.05-0.05-0.09-0.1-0.14-0.14l-34.03-34.03l-42.93,26.72c-13.49,8.4-31.17,4.4-39.64-9.21
			c0,0,124.49-77.45,126.6-78.82l0.99-0.62l-0.13,0.06c23.13-14.52,53.79-12.21,74.53,6.93c0.3,0.28,0.61,0.56,0.91,0.86
			c4.67,4.58,9.05,9.44,13.14,14.54c22.58,28.15,36.08,63.89,36.08,102.78c0,90.82-73.63,164.44-164.45,164.44
			c-29.56,0-57.3-7.8-81.27-21.46c16.55-2.79,32.51-9.89,46.07-21.33c-24.08,18.46-58.66,16.75-80.79-5.1
			c-0.09-0.09-0.19-0.18-0.28-0.28l29.07-29.07c-12.74,12.74-31.61,15.36-46.88,8c-4.07-1.96-7.88-4.63-11.26-8l29.07-29.07
			c16.05-16.05,16.13-42.01,0-58.14l-9.77-9.77c16.13-16.13,42.09-16.05,58.14,0L269.22,426.55z M295.48,452.81l-7.14,41.2
			l24.17-24.17L295.48,452.81z"/>
	</g>
	<g id="XMLID_3_">
		<path class="st2" d="M303.19,147.39c1.3,5.11-1.46,10.29-6.26,12.14c-0.79,0.18-1.57,0.38-2.34,0.6
			c-5.1,0.69-10.01-2.54-11.32-7.64c-1.41-5.5,1.91-11.1,7.41-12.51C296.19,138.58,301.79,141.89,303.19,147.39z"/>
		<path class="st2" d="M319.6,118.55c5.59,0.95,9.36,6.26,8.41,11.85c-0.92,5.42-5.94,9.13-11.34,8.49c-0.3-0.05-0.6-0.1-0.9-0.15
			c-5.38-1.12-8.95-6.31-8.02-11.77C308.7,121.37,314,117.6,319.6,118.55z"/>
		<path class="st2" d="M373.08,152.09c3.27,4.64,2.17,11.05-2.47,14.32c-4.54,3.2-10.78,2.21-14.11-2.17c0-0.01-0.01-0.02-0.02-0.03
			c-2.87-4.08-6.22-7.8-9.97-11.07c0,0-0.01-0.01-0.02-0.01c-4.25-3.74-4.68-10.22-0.95-14.49c3.74-4.27,10.23-4.7,14.5-0.97l0,0
			C364.94,141.94,369.32,146.78,373.08,152.09L373.08,152.09z"/>
		<path class="st2" d="M429.21,194.83c0.21,5.67-4.22,10.44-9.89,10.64c-5.42,0.2-10.01-3.84-10.59-9.14
			c-0.01-0.49-0.03-0.98-0.06-1.47c0.17-5.35,4.46-9.73,9.9-9.93C424.23,184.73,429,189.16,429.21,194.83z"/>
		<path class="st2" d="M404.57,170.57c1.59,5.45-1.54,11.16-6.98,12.75c-5.21,1.52-10.65-1.27-12.51-6.27
			c-0.14-0.47-0.28-0.95-0.42-1.41c-0.01-0.01-0.01-0.02-0.01-0.03c-1.13-5.23,1.96-10.5,7.17-12.02
			C397.27,161.99,402.98,165.12,404.57,170.57z"/>
		<path class="st2" d="M349.17,106.38c5.14,2.4,7.37,8.51,4.97,13.66c-2.29,4.91-7.96,7.16-12.95,5.27
			c-0.45-0.21-0.9-0.42-1.36-0.63c-0.01,0-0.02-0.01-0.03-0.02c-4.65-2.61-6.58-8.4-4.29-13.31
			C337.91,106.21,344.03,103.98,349.17,106.38z"/>
		<path class="st2" d="M414.78,141.58c2.66,5.01,0.75,11.24-4.26,13.9c-4.71,2.5-10.48,0.97-13.37-3.38
			c-4.7-9-10.7-17.21-17.74-24.4c-3.42-4.11-3.12-10.22,0.79-13.97c4.09-3.93,10.6-3.8,14.53,0.3l0.02-0.02
			c7.89,8.18,14.67,17.45,20.07,27.56L414.78,141.58z"/>
		<path class="st2" d="M385.34,79.7c4.72,3.15,6.01,9.52,2.86,14.25c-2.89,4.35-8.54,5.79-13.1,3.52c-5.48-3.72-11.28-7-17.35-9.81
			c-4.23-2.79-5.85-8.33-3.6-13.02c2.46-5.12,8.59-7.28,13.71-4.82l0.05-0.1c6.08,2.89,11.91,6.21,17.48,9.9L385.34,79.7z"/>
		<path class="st2" d="M416.25,77.64c4.21,3.81,4.52,10.31,0.71,14.52c-3.71,4.08-9.94,4.5-14.14,1.04
			c-0.02-0.02-0.05-0.04-0.08-0.07c-0.16-0.14-0.31-0.28-0.47-0.42c-4.04-3.83-4.3-10.21-0.54-14.36
			C405.55,74.14,412.05,73.83,416.25,77.64z"/>
		<path class="st2" d="M335.69,37.9c5.58,1.04,9.27,6.4,8.23,11.98c-0.99,5.31-5.89,8.91-11.18,8.35c-0.51-0.1-1.03-0.19-1.54-0.28
			c-5.16-1.35-8.48-6.48-7.49-11.81C324.74,40.55,330.1,36.87,335.69,37.9z"/>
	</g>
	<g id="XMLID_2_">
		<path class="st2" d="M230.69,445.76c3.89,4.23,6.26,9.88,6.26,16.07c0,6.19-2.38,11.84-6.26,16.07"/>
		<path class="st2" d="M230.69,477.91c-3.89-4.23-6.27-9.88-6.27-16.07c0-6.19,2.38-11.84,6.27-16.07"/>
	</g>
</g>
<g id="XMLID_5_">
	<path class="st3" d="M513.26,441.32c0.05,0.01,0.11,0.01,0.16,0.01c2.89,0,5.22-2.34,5.22-5.22v-0.17v-10v-10v-10v-10v-10v-10
		v-6.03c0-1.13-0.35-2.17-0.95-3.02c-0.95-1.34-2.5-2.21-4.27-2.21c-2.89,0-5.22,2.34-5.22,5.23v6.47v10v10v10v10v10v9.73
		c0,0.09,0,0.18,0.01,0.26C508.34,439.08,510.53,441.24,513.26,441.32z"/>
	<path class="st3" d="M589.94,434.64c-0.12-0.4-0.28-0.79-0.5-1.16l-3.07-5.27l-3.68-6.32l-3.68-6.32l-3.68-6.32l-0.69-1.18h1.87
		h5.2l1.77,3.03l3.68,6.32l3.68,6.32l3.68,6.32l3.68,6.32l1.37,2.36c0.83,1.42,2.22,2.31,3.73,2.54c0.26,0.04,0.52,0.06,0.79,0.06
		c0.89,0,1.79-0.23,2.62-0.71c1.91-1.12,2.85-3.24,2.54-5.3c-0.09-0.64-0.31-1.26-0.65-1.85l-2.76-4.74l-3.68-6.32l-3.67-6.33
		l-3.68-6.32l-1.19-2.04c1.59-0.28,3.12-0.73,4.57-1.34c5.27-2.2,9.49-6.42,11.69-11.69c1.07-2.56,1.66-5.37,1.66-8.32
		c0-1.06-0.08-2.09-0.23-3.11c-0.38-2.68-1.26-5.2-2.53-7.47c-1.17-2.09-2.68-3.97-4.45-5.55c-1.79-1.62-3.86-2.94-6.12-3.88
		c-2.56-1.08-5.37-1.68-8.32-1.68c-0.01,0-0.02,0-0.03,0h-9.97h-10l-9.99-0.01h-10h-0.27c-2.89,0-5.23,2.34-5.23,5.23
		c0,0.09,0,0.18,0.01,0.26c0.13,2.71,2.33,4.87,5.05,4.95c0.06,0.01,0.11,0.01,0.17,0.01l9.81,0.01h9.7c0.05,0,0.11,0,0.16,0
		s0.09,0,0.14,0c2.77,0.03,5.29,1.07,7.23,2.77c1.86,1.61,3.18,3.83,3.66,6.34c0.14,0.69,0.21,1.4,0.21,2.13
		c0,6.19-5.04,11.23-11.24,11.23h-2.33h-1.41c-1.87,0-3.6,1-4.53,2.62c-0.69,1.19-0.87,2.57-0.54,3.86c0.11,0.48,0.3,0.94,0.55,1.37
		l2.97,5.11l3.68,6.32l3.68,6.32l3.68,6.32l3.67,6.33l1.68,2.88c0.7,1.21,1.81,2.03,3.05,2.39c0.47,0.14,0.97,0.21,1.47,0.21
		c0.9,0,1.8-0.23,2.63-0.71C589.67,439.4,590.6,436.9,589.94,434.64z"/>
	<path class="st3" d="M589.44,375.14h0.42c2.68,0,5.14,0.94,7.07,2.51c1.89,1.54,3.28,3.69,3.86,6.14c0.2,0.83,0.3,1.7,0.3,2.59
		c0,3.1-1.26,5.9-3.29,7.94c-2.04,2.03-4.84,3.29-7.94,3.29h-2.02c0.38-0.61,0.72-1.25,1.03-1.9c1.36-2.83,2.12-6,2.12-9.33
		c0-0.89-0.05-1.77-0.16-2.63c-0.33-2.72-1.16-5.28-2.41-7.59c-0.18-0.35-0.38-0.69-0.58-1.02H589.44z"/>
	<path class="st3" d="M612,475.47l-1.06-1.83l-3.69-6.31l-3.68-6.32l-3.68-6.32l-0.25-0.42c-1.19-2.04-3.6-3.03-5.88-2.41
		c-0.86,0.23-1.61,0.67-2.22,1.25c-1.02,0.96-1.64,2.32-1.64,3.8v7.77v10v10v10v10v10v8.25c0,0.53,0.08,1.05,0.22,1.53
		c0.66,2.14,2.64,3.7,5,3.7c0.53,0,1.04-0.08,1.52-0.22c1.67-0.51,2.97-1.82,3.48-3.48c0.14-0.48,0.22-1,0.22-1.53v-8.69v-10v-10
		v-10v-8l2.95,5.05l3.68,6.32l3.68,6.32l1.35,2.31"/>
	<path class="st3" d="M612,452.24c-0.09,0.05-0.18,0.1-0.27,0.15c-1.1,0.64-1.87,1.62-2.27,2.73c-0.52,1.41-0.42,3.02,0.39,4.42
		l1.91,3.28l0.24,0.41"/>
	<path class="st3" d="M527.32,437.26c0.52,2.33,2.6,4.07,5.09,4.07c0.32,0,0.63-0.03,0.93-0.09c2.14-0.38,3.82-2.06,4.2-4.2
		c0.06-0.3,0.09-0.61,0.09-0.93v-9.16v-10v-10v-10v-10v-10v-7.04c0-0.86-0.21-1.67-0.58-2.38c-0.86-1.69-2.62-2.85-4.64-2.85
		c-1.45,0-2.75,0.58-3.69,1.53c-0.95,0.95-1.53,2.25-1.53,3.7v7.48v10v10v10v10v10v8.72C527.19,436.51,527.23,436.89,527.32,437.26z
		"/>
	<path class="st3" d="M560.35,494.23l-1.72-2.95c-0.03-0.05-0.06-0.11-0.09-0.16l-1.87-3.21l-3.69-6.31l-3.69-6.31l-3.69-6.31
		l-3.69-6.31l-3.69-6.31l-1.22-2.09l-0.08-0.14c-0.86-1.47-2.33-2.37-3.91-2.56c-1.09-0.12-2.22,0.09-3.24,0.69
		c-1.84,1.08-2.78,3.11-2.56,5.11c0.08,0.7,0.31,1.4,0.69,2.05l2.68,4.58l3.69,6.31l3.69,6.31l3.69,6.31l3.32,5.69h-7.02l-0.73-1.26
		l-3.69-6.31l-3.68-6.32l-3.68-6.32l-3.69-6.31l-3.68-6.32l-0.86-1.48l-0.09-0.15c-1.02-1.76-2.92-2.71-4.82-2.6
		c-0.8,0.04-1.59,0.27-2.32,0.7c-1.57,0.91-2.5,2.53-2.6,4.22c-0.06,1,0.17,2.01,0.7,2.93l2.35,4.02l3.68,6.32l3.68,6.32l3.69,6.31
		l3.64,6.25h-9.89h-2.54c-2.89,0-5.22,2.33-5.22,5.22v2.54v10v10v6.55c0,0.99,0.27,1.92,0.75,2.7c0.91,1.52,2.57,2.53,4.47,2.53
		c1.44,0,2.75-0.58,3.69-1.53c0.95-0.95,1.53-2.25,1.53-3.7v-6.99v-10v-6.88h6.88h6.43l1.31,2.26l3.69,6.31l3.68,6.32l3.68,6.32
		l3.09,5.29c0.2,0.34,0.43,0.65,0.7,0.92c0.98,1.09,2.38,1.68,3.82,1.68c0.9,0,1.8-0.23,2.63-0.72c2.49-1.45,3.34-4.65,1.88-7.15
		l-0.79-1.35l-3.68-6.32l-3.69-6.31l-3.68-6.32l-0.54-0.93h1.47h5.56l1.64,2.8l3.69,6.31l3.68,6.32l3.69,6.31l2.79,4.77
		c0.31,0.52,0.69,0.97,1.12,1.32c0.95,0.83,2.16,1.27,3.4,1.27c0.89,0,1.8-0.24,2.63-0.72c0.31-0.18,0.6-0.39,0.86-0.62
		c1.8-1.63,2.29-4.35,1.01-6.53l-0.48-0.82l-3.69-6.31l-3.69-6.31l-3.69-6.31L560.35,494.23z"/>
	<line class="st3" x1="508.2" y1="376.38" x2="517.69" y2="366.89"/>
	<path class="st3" d="M528.55,366.04"/>
	<line class="st3" x1="508.2" y1="386.38" x2="518.64" y2="375.94"/>
	<line class="st3" x1="527.19" y1="377.39" x2="537.05" y2="367.53"/>
	<line class="st3" x1="508.2" y1="396.38" x2="518.64" y2="385.94"/>
	<line class="st3" x1="544.41" y1="370.17" x2="549.9" y2="364.68"/>
	<line class="st3" x1="527.19" y1="387.39" x2="537.63" y2="376.95"/>
	<line class="st3" x1="508.2" y1="406.38" x2="518.64" y2="395.94"/>
	<line class="st3" x1="549.46" y1="375.12" x2="559.9" y2="364.68"/>
	<line class="st3" x1="527.19" y1="397.39" x2="537.63" y2="386.95"/>
	<line class="st3" x1="508.2" y1="416.38" x2="518.64" y2="405.94"/>
	<line class="st3" x1="559.44" y1="375.14" x2="569.89" y2="364.69"/>
	<line class="st3" x1="527.19" y1="407.39" x2="537.63" y2="396.95"/>
	<line class="st3" x1="508.2" y1="426.38" x2="518.64" y2="415.94"/>
	<line class="st3" x1="569.44" y1="375.14" x2="579.89" y2="364.69"/>
	<line class="st3" x1="527.19" y1="417.39" x2="537.63" y2="406.95"/>
	<line class="st3" x1="508.21" y1="436.37" x2="518.64" y2="425.94"/>
	<line class="st3" x1="576.67" y1="377.91" x2="589.89" y2="364.69"/>
	<line class="st3" x1="527.19" y1="427.39" x2="537.63" y2="416.95"/>
	<line class="st3" x1="513.26" y1="441.32" x2="518.64" y2="435.94"/>
	<line class="st3" x1="589.44" y1="375.14" x2="598.21" y2="366.37"/>
	<line class="st3" x1="580.33" y1="384.25" x2="588.42" y2="376.16"/>
	<line class="st3" x1="560.49" y1="404.09" x2="566.97" y2="397.61"/>
	<line class="st3" x1="527.32" y1="437.26" x2="537.63" y2="426.95"/>
	<line class="st3" x1="508.11" y1="456.47" x2="513.03" y2="451.55"/>
	<line class="st3" x1="596.93" y1="377.65" x2="604.33" y2="370.25"/>
	<line class="st3" x1="564.01" y1="410.57" x2="590.83" y2="383.75"/>
	<line class="st3" x1="511.16" y1="463.42" x2="518.8" y2="455.78"/>
	<line class="st3" x1="600.79" y1="383.79" x2="608.78" y2="375.8"/>
	<line class="st3" x1="576.51" y1="408.07" x2="588.87" y2="395.71"/>
	<line class="st3" x1="567.69" y1="416.89" x2="575.33" y2="409.25"/>
	<line class="st3" x1="527.21" y1="457.37" x2="533.01" y2="451.57"/>
	<line class="st3" x1="514.84" y1="469.74" x2="522.48" y2="462.1"/>
	<polyline class="st3" points="583.48,411.1 599.03,395.55 611.31,383.27 	"/>
	<line class="st3" x1="571.37" y1="423.21" x2="579.01" y2="415.57"/>
	<line class="st3" x1="530.58" y1="464" x2="538.22" y2="456.36"/>
	<line class="st3" x1="518.52" y1="476.06" x2="526.17" y2="468.41"/>
	<line class="st3" x1="598.19" y1="406.39" x2="609.88" y2="394.7"/>
	<line class="st3" x1="587.16" y1="417.42" x2="594.81" y2="409.77"/>
	<line class="st3" x1="575.05" y1="429.53" x2="582.69" y2="421.89"/>
	<line class="st3" x1="534.27" y1="470.31" x2="541.91" y2="462.67"/>
	<line class="st3" x1="522.21" y1="482.37" x2="529.85" y2="474.73"/>
	<line class="st3" x1="508.2" y1="496.38" x2="515.96" y2="488.62"/>
	<line class="st3" x1="590.84" y1="423.74" x2="598.49" y2="416.09"/>
	<line class="st3" x1="578.72" y1="435.86" x2="586.37" y2="428.21"/>
	<line class="st3" x1="537.96" y1="476.62" x2="545.6" y2="468.98"/>
	<polyline class="st3" points="508.2,506.38 525.91,488.68 533.53,481.05 	"/>
	<line class="st3" x1="594.52" y1="430.06" x2="602.16" y2="422.42"/>
	<line class="st3" x1="583.45" y1="441.13" x2="589.94" y2="434.64"/>
	<line class="st3" x1="541.65" y1="482.93" x2="549.29" y2="475.29"/>
	<line class="st3" x1="525.52" y1="499.06" x2="537.22" y2="487.36"/>
	<line class="st3" x1="508.2" y1="516.38" x2="518.64" y2="505.94"/>
	<line class="st3" x1="598.2" y1="436.38" x2="605.84" y2="428.74"/>
	<polyline class="st3" points="533.26,501.32 545.47,489.12 552.98,481.6 	"/>
	<line class="st3" x1="508.95" y1="525.63" x2="518.64" y2="515.94"/>
	<line class="st3" x1="603.3" y1="441.28" x2="609.25" y2="435.33"/>
	<path class="st3" d="M591.51,453.08"/>
	<line class="st3" x1="545.52" y1="499.06" x2="556.67" y2="487.91"/>
	<line class="st3" x1="536.95" y1="507.63" x2="544.59" y2="499.99"/>
	<path class="st3" d="M612,442.58"/>
	<line class="st3" x1="589.9" y1="464.68" x2="599.89" y2="454.69"/>
	<line class="st3" x1="552.72" y1="501.86" x2="560.35" y2="494.23"/>
	<line class="st3" x1="540.63" y1="513.95" x2="548.27" y2="506.31"/>
	<line class="st3" x1="589.9" y1="474.68" x2="603.57" y2="461.01"/>
	<line class="st3" x1="556.41" y1="508.17" x2="564.04" y2="500.54"/>
	<line class="st3" x1="544.31" y1="520.27" x2="551.96" y2="512.62"/>
	<line class="st3" x1="611.76" y1="462.82" x2="612" y2="462.58"/>
	<polyline class="st3" points="589.9,484.68 599.34,475.24 607.25,467.33 	"/>
	<line class="st3" x1="560.09" y1="514.49" x2="567.73" y2="506.85"/>
	<line class="st3" x1="548.1" y1="526.48" x2="555.64" y2="518.94"/>
	<line class="st3" x1="603.29" y1="481.29" x2="610.94" y2="473.64"/>
	<line class="st3" x1="589.9" y1="494.68" x2="600.34" y2="484.24"/>
	<line class="st3" x1="563.78" y1="520.8" x2="571.42" y2="513.16"/>
	<line class="st3" x1="606.97" y1="487.61" x2="612" y2="482.58"/>
	<line class="st3" x1="589.9" y1="504.68" x2="600.34" y2="494.24"/>
	<line class="st3" x1="567.69" y1="526.89" x2="575.11" y2="519.47"/>
	<line class="st3" x1="610.65" y1="493.93" x2="612" y2="492.58"/>
	<line class="st3" x1="589.9" y1="514.68" x2="600.34" y2="504.24"/>
	<line class="st3" x1="590.12" y1="524.46" x2="600.34" y2="514.24"/>
	<path class="st3" d="M612,522.58"/>
	<path class="st3" d="M612,532.58"/>
	<path class="st3" d="M612,542.58"/>
</g>
</svg>
